<?xml version="1.0" encoding="utf-8"?>
<!-- Generator: Adobe Illustrator 25.0.0, SVG Export Plug-In . SVG Version: 6.00 Build 0)  -->
<svg version="1.1" id="图层_1" xmlns="http://www.w3.org/2000/svg" xmlns:xlink="http://www.w3.org/1999/xlink" x="0px" y="0px"
	 viewBox="0 0 385.39 297.64" style="enable-background:new 0 0 385.39 297.64;" xml:space="preserve">
<style type="text/css">
	.st0{opacity:0.2;fill:#F0F0F0;enable-background:new    ;}
	.st1{fill:#F0F0F0;}
	.st2{fill:#3E3E3E;}
	.st3{fill:none;stroke:#3E3E3E;stroke-width:16.8968;stroke-linecap:round;stroke-linejoin:round;stroke-miterlimit:10;}
	.st4{fill:none;stroke:#000000;stroke-width:16.8968;stroke-linecap:round;stroke-linejoin:round;stroke-miterlimit:10;}
</style>
<path class="st0" d="M0,144.22L0,144.22C0,78.47,53.3,25.17,119.06,25.17h147.28c65.75,0,119.06,53.3,119.06,119.06l0,0
	c0,65.75-53.3,119.05-119.06,119.05H119.06C53.3,263.28,0,209.98,0,144.22z"/>
<path class="st1" d="M100.57,297.64L100.57,297.64c-40.7,0-73.7-33-73.7-73.7V73.7c0-40.7,33-73.7,73.7-73.7l0,0
	c40.7,0,73.7,33,73.7,73.7v150.24C174.28,264.64,141.28,297.64,100.57,297.64z"/>
<g>
	<g>
		<path class="st2" d="M163.09,99.55l-6.46,38c-0.79,4.66-5.21,7.79-9.86,7c-4.66-0.79-7.79-5.21-7-9.86
			c0.15-0.89,0.45-1.76,0.85-2.52l17.81-34.19c0.64-1.22,2.14-1.69,3.36-1.06C162.77,97.44,163.27,98.52,163.09,99.55z"/>
	</g>
	<line class="st3" x1="43.6" y1="67.76" x2="310.06" y2="67.76"/>
	<line class="st3" x1="114.1" y1="98.59" x2="69.86" y2="98.88"/>
	<polyline class="st4" points="114.1,199.05 44.09,198.56 114.1,98.59 	"/>
	<path class="st4" d="M275.23,67.76c0,0-58.09,125.35-126.61,165.32c-23.34,13.61-34.52,13.61-34.52,13.61"/>
	<line class="st4" x1="197.25" y1="99.85" x2="140.85" y2="99.85"/>
</g>
</svg>
